PathFileType	4	(X/Y/Z)	C:\Users\MAHE\Documents\generic-specific-tibial-stress-mtlb\PublicDataset\P01\Gait\WBDS01static1.trc
DataRate	CameraRate	NumFrames	NumMarkers	Units	OrigDataRate	OrigDataStartFrame	OrigNumFrames
150.000000	150.000000	4	28	mm	150.000000	0	150
Frame#	Time	L.Ankle			L.Ankle.Medial			L.ASIS			L.GTR			L.Heel			L.HF			L.Iliac.Crest			L.Knee			L.Knee.Medial			L.MT1			L.MT2			L.MT5			L.PSIS			L.TT			R.Ankle			R.Ankle.Medial			R.ASIS			R.GTR			R.Heel			R.HF			R.Iliac.Crest			R.Knee			R.Knee.Medial			R.MT1			R.MT2			R.MT5			R.PSIS			R.TT			
		X1	Y1	Z1	X2	Y2	Z2	X3	Y3	Z3	X4	Y4	Z4	X5	Y5	Z5	X6	Y6	Z6	X7	Y7	Z7	X8	Y8	Z8	X9	Y9	Z9	X10	Y10	Z10	X11	Y11	Z11	X12	Y12	Z12	X13	Y13	Z13	X14	Y14	Z14	X15	Y15	Z15	X16	Y16	Z16	X17	Y17	Z17	X18	Y18	Z18	X19	Y19	Z19	X20	Y20	Z20	X21	Y21	Z21	X22	Y22	Z22	X23	Y23	Z23	X24	Y24	Z24	X25	Y25	Z25	X26	Y26	Z26	X27	Y27	Z27	X28	Y28	Z28	

1	0	691.0194091796875	75.76548004150391	1043.256591796875	709.8464965820313	86.88595581054688	1127.91650390625	804.985595703125	955.009521484375	1084.992553710938	715.6424560546875	880.0567626953125	1040.611694335938	635.9139404296875	47.62754440307617	1083.797607421875	699.1192016601563	432.6904296875	1043.86181640625	717.2068481445313	1032.800048828125	1046.916625976563	718.759765625	495.1647338867188	1052.982055664063	723.5735473632813	486.5261840820313	1179.56982421875	841.5811157226563	40.75751876831055	1101.985717773438	841.970947265625	35.23052215576172	1073.186157226563	814.7635498046875	28.85873222351074	1021.697937011719	615.3594970703125	1002.855590820313	1194.643432617188	758.7003784179688	419.9806823730469	1087.280639648438	689.13818359375	72.90042114257813	1399.373046875	705.8524169921875	91.84284973144531	1314.398559570313	809.2158813476563	953.658935546875	1364.702880859375	705.5490112304688	888.2345581054688	1405.404174804688	637.0432739257813	49.79465103149414	1349.47314453125	710.0555419921875	440.3892517089844	1404.086547851563	726.913330078125	1031.109008789063	1406.155395507813	727.0244140625	495.9943237304688	1395.333251953125	729.117919921875	481.89990234375	1270.539184570313	842.3753051757813	43.01531600952148	1341.605590820313	842.6023559570313	37.48693466186523	1365.08642578125	810.1422119140625	31.42134666442871	1416.381713867188	617.2884521484375	1000.792785644531	1264.591552734375	766.8020629882813	423.7076110839844	1348.005981445313	
2	0.006666666666666667	691.0281982421875	75.76628112792969	1043.249389648438	709.848876953125	86.88785552978516	1127.917846679688	804.9609985351563	955.017578125	1085.013916015625	715.6243286132813	880.0623168945313	1040.609741210938	635.9157104492188	47.62482833862305	1083.800537109375	699.1117553710938	432.6900939941406	1043.863159179688	717.1705932617188	1032.795776367188	1046.905517578125	718.7322998046875	495.1627197265625	1052.9736328125	723.5469970703125	486.5077514648438	1179.55517578125	841.579345703125	40.75996398925781	1101.96923828125	841.9747314453125	35.22823715209961	1073.197143554688	814.7638549804688	28.84593391418457	1021.694702148438	615.3251953125	1002.844055175781	1194.640747070313	758.6859741210938	419.9857482910156	1087.283325195313	689.1346435546875	72.89334869384766	1399.385009765625	705.8603515625	91.84113311767578	1314.408203125	809.1776733398438	953.695556640625	1364.725219726563	705.5399169921875	888.2391967773438	1405.409912109375	637.0452880859375	49.7895393371582	1349.47802734375	710.0704956054688	440.3867797851563	1404.091674804688	726.8941040039063	1031.117797851563	1406.157958984375	727.0372924804688	495.9937438964844	1395.3369140625	729.1011352539063	481.9085693359375	1270.54052734375	842.3824462890625	43.02460479736328	1341.619018554688	842.5902709960938	37.49937057495117	1365.076782226563	810.1434936523438	31.41512107849121	1416.385986328125	617.258056640625	1000.783508300781	1264.584106445313	766.807861328125	423.6981811523438	1347.990356445313	
3	0.01333333333333333	691.0247192382813	75.76723480224609	1043.255004882813	709.8477783203125	86.88780212402344	1127.919921875	804.937255859375	955.0275268554688	1085.021728515625	715.6031494140625	880.0651245117188	1040.607299804688	635.9132690429688	47.62473297119141	1083.791748046875	699.081298828125	432.6979675292969	1043.859985351563	717.149169921875	1032.795288085938	1046.917724609375	718.7169799804688	495.16943359375	1052.978149414063	723.5338745117188	486.5168762207031	1179.558471679688	841.59033203125	40.75197219848633	1101.9775390625	841.9739379882813	35.23298263549805	1073.1953125	814.7573852539063	28.85946846008301	1021.702453613281	615.30126953125	1002.840209960938	1194.63671875	758.6742553710938	419.9981994628906	1087.290649414063	689.140380859375	72.89564514160156	1399.389282226563	705.8530883789063	91.83366394042969	1314.404174804688	809.1619873046875	953.712158203125	1364.713989257813	705.5187377929688	888.2352905273438	1405.395141601563	637.0371704101563	49.7866096496582	1349.484375	710.0858764648438	440.3925170898438	1404.09814453125	726.8784790039063	1031.114624023438	1406.156494140625	727.0531616210938	495.9864807128906	1395.330200195313	729.1156616210938	481.900146484375	1270.539916992188	842.3777465820313	43.03111267089844	1341.611572265625	842.5924682617188	37.51565170288086	1365.061279296875	810.1419067382813	31.41820335388184	1416.371704101563	617.2269897460938	1000.773010253906	1264.593139648438	766.8201904296875	423.7035217285156	1347.98193359375	
4	0.02	691.0345458984375	75.76660919189453	1043.251953125	709.84521484375	86.88761901855469	1127.91748046875	804.9144287109375	955.0300903320313	1085.050415039063	715.5708618164063	880.068115234375	1040.599365234375	635.9114990234375	47.62321472167969	1083.800903320313	699.0783081054688	432.694091796875	1043.859375	717.1260375976563	1032.800659179688	1046.92333984375	718.69189453125	495.1664123535156	1052.982543945313	723.5119018554688	486.5164794921875	1179.55029296875	841.5842895507813	40.76193618774414	1101.97705078125	841.9678344726563	35.23154830932617	1073.188354492188	814.765380859375	28.85759162902832	1021.699951171875	615.2785034179688	1002.829284667969	1194.6435546875	758.6422119140625	419.9862365722656	1087.283203125	689.146728515625	72.89242553710938	1399.381469726563	705.8401489257813	91.83631134033203	1314.402221679688	809.1239624023438	953.7144165039063	1364.71240234375	705.5055541992188	888.2353515625	1405.392333984375	637.03515625	49.77871704101563	1349.489990234375	710.101318359375	440.3806457519531	1404.10498046875	726.8514404296875	1031.123413085938	1406.151245117188	727.0700073242188	495.9916076660156	1395.330810546875	729.12841796875	481.8953857421875	1270.542114257813	842.3709716796875	43.04281997680664	1341.628051757813	842.5884399414063	37.52499008178711	1365.078491210938	810.1364135742188	31.42887496948242	1416.37890625	617.2070922851563	1000.753112792969	1264.58203125	766.8328247070313	423.7077941894531	1347.982177734375	
